<svg width="32" height="32" viewBox="0 0 32 32" fill="none" xmlns="http://www.w3.org/2000/svg">
<g clip-path="url(#clip0_47_26902)">
<path fill-rule="evenodd" clip-rule="evenodd" d="M22 17H17V22C17 22.55 16.553 23 16 23C15.447 23 15 22.55 15 22V17H10C9.447 17 9 16.55 9 16C9 15.45 9.447 15 10 15H15V10C15 9.45 15.447 9 16 9C16.553 9 17 9.45 17 10V15H22C22.553 15 23 15.45 23 16C23 16.55 22.553 17 22 17ZM16 0C7.163 0 0 7.16 0 16C0 24.84 7.163 32 16 32C24.837 32 32 24.84 32 16C32 7.16 24.837 0 16 0Z" fill="#FA627C"/>
</g>
<defs>
<clipPath id="clip0_47_26902">
<rect width="32" height="32" fill="white"/>
</clipPath>
</defs>
</svg>
