<svg width="25" height="24" viewBox="0 0 25 24" fill="none" xmlns="http://www.w3.org/2000/svg">
<g clip-path="url(#clip0_47_26934)">
<path d="M20.8454 6.86758L12.6207 15.0911C11.8016 15.91 9.3704 16.2892 8.82726 15.7462C8.28411 15.2031 8.65483 12.7723 9.47386 11.9534L17.7073 3.72123C17.9103 3.49975 18.1561 3.32171 18.4299 3.19784C18.7036 3.07397 18.9997 3.00682 19.3001 3.00049C19.6005 2.99417 19.8992 3.04877 20.1779 3.16101C20.4566 3.27326 20.7097 3.44083 20.9219 3.65357C21.1341 3.86632 21.301 4.11983 21.4125 4.39883C21.5239 4.67783 21.5778 4.97652 21.5707 5.27688C21.5635 5.57725 21.4955 5.87308 21.3709 6.14646C21.2462 6.41985 21.0675 6.66517 20.8454 6.86758Z" stroke="#FA627C" stroke-linecap="round" stroke-linejoin="round"/>
<path d="M11.5713 5H7.12684C6.18385 5 5.27954 5.3746 4.61274 6.0414C3.94595 6.7082 3.57129 7.61256 3.57129 8.55556V17.4444C3.57129 18.3875 3.94595 19.2918 4.61274 19.9586C5.27954 20.6254 6.18385 21 7.12684 21H16.9046C18.8691 21 19.5713 19.4 19.5713 17.4444V13" stroke="#FA627C" stroke-linecap="round" stroke-linejoin="round"/>
</g>
<defs>
<clipPath id="clip0_47_26934">
<rect width="20" height="20" fill="white" transform="translate(2.57129 2)"/>
</clipPath>
</defs>
</svg>
