<svg width="32" height="32" viewBox="0 0 32 32" fill="none" xmlns="http://www.w3.org/2000/svg">
<rect width="32" height="32" rx="16" fill="#B1757F"/>
<path d="M26.7369 24.3333H5.26324C5.10504 24.3333 4.95332 24.2645 4.84146 24.1418C4.72959 24.0192 4.66675 23.8529 4.66675 23.6795V7.98719C4.66675 7.81378 4.72959 7.64747 4.84146 7.52485C4.95332 7.40223 5.10504 7.33334 5.26324 7.33334H26.7369C26.8951 7.33334 27.0468 7.40223 27.1587 7.52485C27.2706 7.64747 27.3334 7.81378 27.3334 7.98719V23.6795C27.3334 23.8529 27.2706 24.0192 27.1587 24.1418C27.0468 24.2645 26.8951 24.3333 26.7369 24.3333Z" fill="#282828"/>
<path d="M26.7369 24.3333H5.26324C5.10504 24.3333 4.95332 24.2645 4.84146 24.1418C4.72959 24.0192 4.66675 23.8529 4.66675 23.6795V7.98719C4.66675 7.81378 4.72959 7.64747 4.84146 7.52485C4.95332 7.40223 5.10504 7.33334 5.26324 7.33334H26.7369C26.8951 7.33334 27.0468 7.40223 27.1587 7.52485C27.2706 7.64747 27.3334 7.81378 27.3334 7.98719V23.6795C27.3334 23.8529 27.2706 24.0192 27.1587 24.1418C27.0468 24.2645 26.8951 24.3333 26.7369 24.3333ZM5.85973 23.0257H26.1404V8.64104H5.85973V23.0257Z" fill="#B1757F"/>
<path d="M16.0119 16.7778C15.9031 16.7771 15.7966 16.7471 15.7041 16.6912L5.04739 10.3391C4.96701 10.3091 4.89429 10.2624 4.8343 10.2022C4.77431 10.142 4.7285 10.0698 4.70005 9.99062C4.67159 9.9114 4.66119 9.82709 4.66955 9.74355C4.67792 9.66001 4.70486 9.57926 4.74849 9.50691C4.79212 9.43456 4.8514 9.37236 4.92219 9.32464C4.99299 9.27692 5.0736 9.24482 5.15841 9.23059C5.24321 9.21636 5.33019 9.22033 5.41326 9.24223C5.49633 9.26413 5.57352 9.30344 5.63943 9.3574L16.0119 15.5247L26.3607 9.3574C26.4266 9.30344 26.5038 9.26413 26.5869 9.24223C26.67 9.22033 26.757 9.21636 26.8418 9.23059C26.9266 9.24482 27.0072 9.27692 27.078 9.32464C27.1488 9.37236 27.208 9.43456 27.2517 9.50691C27.2953 9.57926 27.3222 9.66001 27.3306 9.74355C27.339 9.82709 27.3286 9.9114 27.3001 9.99062C27.2717 10.0698 27.2259 10.142 27.1659 10.2022C27.1059 10.2624 27.0332 10.3091 26.9528 10.3391L16.2961 16.6912C16.2105 16.7432 16.1127 16.773 16.0119 16.7778Z" fill="#B1757F"/>
</svg>
