<svg width="138" height="83" viewBox="0 0 138 83" fill="none" xmlns="http://www.w3.org/2000/svg">
<path d="M41.4037 46.8679L41.7016 68.7165L19.8525 68.9749C16.3602 69.0162 13.4874 66.2138 13.4443 62.7291L13.4443 62.7278C13.3967 59.2377 16.1864 56.3761 19.6766 56.3349L19.6769 56.3348L27.8848 56.2352L28.8859 56.223L28.8726 55.2219L28.7633 47.0141L28.7633 47.0138C28.7157 43.5237 31.5053 40.6621 34.9955 40.6208L34.9968 40.6208C36.7412 40.5979 38.3298 41.2861 39.4918 42.4189C40.6532 43.5511 41.3799 45.1193 41.4037 46.8679Z" fill="#FA627C" stroke="url(#paint0_linear_47_13791)" stroke-width="2"/>
<path d="M15.392 28.28L1.152 20.856V18.36L15.392 10.936V14.04L4.48 19.608L15.392 25.176V28.28ZM106.953 71.304L115.433 45.48H117.961L109.577 71.304H106.953ZM122.427 66.28V63.176L133.339 57.608L122.427 52.04V48.936L136.667 56.36V58.856L122.427 66.28Z" fill="#FA627C"/>
<path d="M21.0113 31V7.48H29.2353V11.032H24.4673V17.208H27.6673V20.76H24.4673V31H21.0113ZM33.8363 31V7.48H37.2923V31H33.8363ZM47.2275 31.256C46.2782 31.256 45.4888 31.1013 44.8595 30.792C44.2302 30.472 43.7342 30.0133 43.3715 29.416C43.0088 28.8187 42.7475 28.0987 42.5875 27.256C42.4382 26.4133 42.3635 25.464 42.3635 24.408L45.7555 24.088C45.7555 24.6 45.7715 25.096 45.8035 25.576C45.8462 26.0453 45.9155 26.472 46.0115 26.856C46.1182 27.2293 46.2675 27.528 46.4595 27.752C46.6622 27.976 46.9182 28.088 47.2275 28.088C47.7395 28.088 48.1022 27.8533 48.3155 27.384C48.5288 26.904 48.6355 26.328 48.6355 25.656C48.6355 24.984 48.4595 24.2853 48.1075 23.56C47.7555 22.8347 47.3342 22.1467 46.8435 21.496C46.0115 20.3867 45.2808 19.3573 44.6515 18.408C44.0328 17.4587 43.5475 16.5253 43.1955 15.608C42.8542 14.6907 42.6835 13.7307 42.6835 12.728C42.6835 11.9387 42.7848 11.2133 42.9875 10.552C43.1902 9.88 43.4835 9.29867 43.8675 8.808C44.2622 8.30667 44.7368 7.91733 45.2915 7.64C45.8462 7.36267 46.4808 7.224 47.1955 7.224C48.0808 7.224 48.8275 7.37333 49.4355 7.672C50.0542 7.97067 50.5502 8.39733 50.9235 8.952C51.3075 9.50667 51.5848 10.168 51.7555 10.936C51.9368 11.6933 52.0275 12.536 52.0275 13.464L48.6355 13.784C48.6355 13.3893 48.6142 12.9947 48.5715 12.6C48.5395 12.1947 48.4755 11.8267 48.3795 11.496C48.2835 11.1653 48.1448 10.8987 47.9635 10.696C47.7822 10.4933 47.5475 10.392 47.2595 10.392C46.8115 10.392 46.5022 10.584 46.3315 10.968C46.1608 11.3413 46.0755 11.8747 46.0755 12.568C46.0755 13.464 46.3155 14.328 46.7955 15.16C47.2755 15.992 47.9208 16.9627 48.7315 18.072C49.7022 19.384 50.4915 20.5893 51.0995 21.688C51.7182 22.7867 52.0275 24.0027 52.0275 25.336C52.0275 26.1787 51.9368 26.9627 51.7555 27.688C51.5742 28.4027 51.2862 29.0267 50.8915 29.56C50.5075 30.0933 50.0115 30.5093 49.4035 30.808C48.8062 31.1067 48.0808 31.256 47.2275 31.256ZM59.384 31V11.032H56.12V7.48H66.104V11.032H62.84V31H59.384ZM68.5913 31L72.1432 7.48H76.3673L79.9193 31H76.5593L75.9193 26.2H72.5913L71.9513 31H68.5913ZM73.0713 22.552H75.4393L74.4473 14.648L74.3513 13.4H74.1593L74.0633 14.648L73.0713 22.552ZM84.9487 31V7.48H88.4047C90.4741 7.48 91.9994 8.056 92.9807 9.208C93.9621 10.3493 94.4527 12.0347 94.4527 14.264C94.4527 15.5867 94.2181 16.7333 93.7487 17.704C93.2901 18.664 92.7301 19.368 92.0687 19.816L94.4207 31H90.9647L89.0127 21.08H88.4047V31H84.9487ZM88.4047 17.88C89.0447 17.88 89.5514 17.7413 89.9247 17.464C90.2981 17.176 90.5647 16.7707 90.7247 16.248C90.8847 15.7253 90.9647 15.1067 90.9647 14.392C90.9647 13.272 90.7781 12.4133 90.4047 11.816C90.0421 11.208 89.3754 10.904 88.4047 10.904V17.88ZM104.034 31.256C103.074 31.256 102.248 31.032 101.554 30.584C100.872 30.136 100.344 29.528 99.9703 28.76C99.6076 27.992 99.4263 27.128 99.4263 26.168V12.312C99.4263 11.3413 99.6076 10.4773 99.9703 9.72C100.344 8.952 100.872 8.344 101.554 7.896C102.248 7.448 103.074 7.224 104.034 7.224C104.994 7.224 105.816 7.448 106.498 7.896C107.192 8.344 107.72 8.952 108.082 9.72C108.456 10.488 108.642 11.352 108.642 12.312V26.168C108.642 27.128 108.456 27.992 108.082 28.76C107.72 29.528 107.192 30.136 106.498 30.584C105.816 31.032 104.994 31.256 104.034 31.256ZM104.034 27.896C104.461 27.896 104.76 27.72 104.93 27.368C105.101 27.0053 105.186 26.6053 105.186 26.168V12.312C105.186 11.8747 105.096 11.48 104.914 11.128C104.733 10.7653 104.44 10.584 104.034 10.584C103.64 10.584 103.346 10.7653 103.154 11.128C102.973 11.48 102.882 11.8747 102.882 12.312V26.168C102.882 26.6053 102.973 27.0053 103.154 27.368C103.336 27.72 103.629 27.896 104.034 27.896ZM114.255 31V7.48H117.711V27.8H122.287V31H114.255ZM58.2425 69V45.48H66.4665V49.032H61.6985V55.208H64.8985V58.76H61.6985V69H58.2425ZM71.0675 69V45.48H74.5235V65.8H79.0995V69H71.0675ZM83.705 69V45.48H87.161V69H83.705ZM92.1363 69L95.9443 56.648L92.2003 45.48H95.5923L97.4803 51.432L97.5763 51.88H97.7043L97.8003 51.432L99.6883 45.48H103.08L99.3363 56.648L103.144 69H99.7523L97.7683 61.992L97.7043 61.544H97.5763L97.5123 61.992L95.5283 69H92.1363Z" fill="#646464"/>
<defs>
<linearGradient id="paint0_linear_47_13791" x1="28.0591" y1="55.2349" x2="42.7962" y2="69.6714" gradientUnits="userSpaceOnUse">
<stop offset="0.197215" stop-color="#FA627C"/>
<stop offset="0.198471" stop-color="#3F3F3F"/>
<stop offset="1" stop-color="#3F3F3F"/>
</linearGradient>
</defs>
</svg>
