<svg width="136" height="65" viewBox="0 0 136 65" fill="none" xmlns="http://www.w3.org/2000/svg">
<path d="M14.392 21.28L0.152 13.856V11.36L14.392 3.936V7.04L3.48 12.608L14.392 18.176V21.28ZM105.953 64.304L114.433 38.48H116.961L108.577 64.304H105.953ZM121.427 59.28V56.176L132.339 50.608L121.427 45.04V41.936L135.667 49.36V51.856L121.427 59.28Z" fill="#FA627C"/>
<path d="M20.0113 24V0.48H28.2353V4.032H23.4673V10.208H26.6673V13.76H23.4673V24H20.0113ZM32.8363 24V0.48H36.2923V24H32.8363ZM46.2275 24.256C45.2782 24.256 44.4888 24.1013 43.8595 23.792C43.2302 23.472 42.7342 23.0133 42.3715 22.416C42.0088 21.8187 41.7475 21.0987 41.5875 20.256C41.4382 19.4133 41.3635 18.464 41.3635 17.408L44.7555 17.088C44.7555 17.6 44.7715 18.096 44.8035 18.576C44.8462 19.0453 44.9155 19.472 45.0115 19.856C45.1182 20.2293 45.2675 20.528 45.4595 20.752C45.6622 20.976 45.9182 21.088 46.2275 21.088C46.7395 21.088 47.1022 20.8533 47.3155 20.384C47.5288 19.904 47.6355 19.328 47.6355 18.656C47.6355 17.984 47.4595 17.2853 47.1075 16.56C46.7555 15.8347 46.3342 15.1467 45.8435 14.496C45.0115 13.3867 44.2808 12.3573 43.6515 11.408C43.0328 10.4587 42.5475 9.52533 42.1955 8.608C41.8542 7.69067 41.6835 6.73067 41.6835 5.728C41.6835 4.93867 41.7848 4.21333 41.9875 3.552C42.1902 2.88 42.4835 2.29867 42.8675 1.808C43.2622 1.30667 43.7368 0.917333 44.2915 0.639999C44.8462 0.362666 45.4808 0.223999 46.1955 0.223999C47.0808 0.223999 47.8275 0.373332 48.4355 0.671999C49.0542 0.970666 49.5502 1.39733 49.9235 1.952C50.3075 2.50667 50.5848 3.168 50.7555 3.936C50.9368 4.69333 51.0275 5.536 51.0275 6.464L47.6355 6.784C47.6355 6.38933 47.6142 5.99467 47.5715 5.6C47.5395 5.19467 47.4755 4.82667 47.3795 4.496C47.2835 4.16533 47.1448 3.89867 46.9635 3.696C46.7822 3.49333 46.5475 3.392 46.2595 3.392C45.8115 3.392 45.5022 3.584 45.3315 3.968C45.1608 4.34133 45.0755 4.87467 45.0755 5.568C45.0755 6.464 45.3155 7.328 45.7955 8.16C46.2755 8.992 46.9208 9.96267 47.7315 11.072C48.7022 12.384 49.4915 13.5893 50.0995 14.688C50.7182 15.7867 51.0275 17.0027 51.0275 18.336C51.0275 19.1787 50.9368 19.9627 50.7555 20.688C50.5742 21.4027 50.2862 22.0267 49.8915 22.56C49.5075 23.0933 49.0115 23.5093 48.4035 23.808C47.8062 24.1067 47.0808 24.256 46.2275 24.256ZM58.384 24V4.032H55.12V0.48H65.104V4.032H61.84V24H58.384ZM67.5913 24L71.1432 0.48H75.3673L78.9193 24H75.5593L74.9193 19.2H71.5913L70.9513 24H67.5913ZM72.0713 15.552H74.4393L73.4473 7.648L73.3513 6.4H73.1593L73.0633 7.648L72.0713 15.552ZM83.9487 24V0.48H87.4047C89.4741 0.48 90.9994 1.056 91.9807 2.208C92.9621 3.34933 93.4527 5.03467 93.4527 7.264C93.4527 8.58667 93.2181 9.73333 92.7487 10.704C92.2901 11.664 91.7301 12.368 91.0687 12.816L93.4207 24H89.9647L88.0127 14.08H87.4047V24H83.9487ZM87.4047 10.88C88.0447 10.88 88.5514 10.7413 88.9247 10.464C89.2981 10.176 89.5647 9.77067 89.7247 9.248C89.8847 8.72533 89.9647 8.10667 89.9647 7.392C89.9647 6.272 89.7781 5.41333 89.4047 4.816C89.0421 4.208 88.3754 3.904 87.4047 3.904V10.88ZM103.034 24.256C102.074 24.256 101.248 24.032 100.554 23.584C99.8716 23.136 99.3436 22.528 98.9703 21.76C98.6076 20.992 98.4263 20.128 98.4263 19.168V5.312C98.4263 4.34133 98.6076 3.47733 98.9703 2.72C99.3436 1.952 99.8716 1.344 100.554 0.895998C101.248 0.447999 102.074 0.223999 103.034 0.223999C103.994 0.223999 104.816 0.447999 105.498 0.895998C106.192 1.344 106.72 1.952 107.082 2.72C107.456 3.488 107.642 4.352 107.642 5.312V19.168C107.642 20.128 107.456 20.992 107.082 21.76C106.72 22.528 106.192 23.136 105.498 23.584C104.816 24.032 103.994 24.256 103.034 24.256ZM103.034 20.896C103.461 20.896 103.76 20.72 103.93 20.368C104.101 20.0053 104.186 19.6053 104.186 19.168V5.312C104.186 4.87466 104.096 4.48 103.914 4.128C103.733 3.76533 103.44 3.584 103.034 3.584C102.64 3.584 102.346 3.76533 102.154 4.128C101.973 4.48 101.882 4.87466 101.882 5.312V19.168C101.882 19.6053 101.973 20.0053 102.154 20.368C102.336 20.72 102.629 20.896 103.034 20.896ZM113.255 24V0.48H116.711V20.8H121.287V24H113.255ZM57.2425 62V38.48H65.4665V42.032H60.6985V48.208H63.8985V51.76H60.6985V62H57.2425ZM70.0675 62V38.48H73.5235V58.8H78.0995V62H70.0675ZM82.705 62V38.48H86.161V62H82.705ZM91.1363 62L94.9443 49.648L91.2003 38.48H94.5923L96.4803 44.432L96.5763 44.88H96.7043L96.8003 44.432L98.6883 38.48H102.08L98.3363 49.648L102.144 62H98.7523L96.7683 54.992L96.7043 54.544H96.5763L96.5123 54.992L94.5283 62H91.1363Z" fill="#F4F4F4"/>
</svg>
