<svg width="32" height="32" viewBox="0 0 32 32" fill="none" xmlns="http://www.w3.org/2000/svg">
<g clip-path="url(#clip0_65_245)">
<path fill-rule="evenodd" clip-rule="evenodd" d="M31.6863 16C31.6863 24.5733 24.8085 31.5402 16.2695 31.684C21.0243 31.6038 25.2639 29.408 28.0878 25.9974C26.2375 28.2316 23.7795 29.9443 20.9671 30.8831C20.1707 31.0362 19.8886 30.548 19.8886 30.1282C19.8886 29.959 19.8907 29.6625 19.8935 29.2661L19.8935 29.2576C19.8993 28.4488 19.9079 27.2276 19.9079 25.8256C19.9079 24.3619 19.4062 23.4047 18.8428 22.9203C22.3375 22.5322 26.0054 21.2063 26.0054 15.18C26.0054 13.4678 25.3978 12.0677 24.3924 10.9709C24.5542 10.5741 25.0925 8.97945 24.2364 6.81953C24.2364 6.81953 22.9219 6.39772 19.9271 8.42768C18.6743 8.08008 17.3319 7.90572 16.0001 7.9C14.6664 7.90572 13.324 8.08008 12.0731 8.42768C9.07636 6.39772 7.75902 6.81953 7.75902 6.81953C6.90585 8.97945 7.44412 10.5741 7.60593 10.9709C6.60255 12.0677 5.99102 13.4678 5.99102 15.18C5.99102 21.1908 9.65322 22.5371 13.1363 22.9329C12.6875 23.3248 12.2831 24.0162 12.1406 25.0302C11.2469 25.4308 8.97432 26.1232 7.5751 23.7264C7.5751 23.7264 6.74695 22.2213 5.17251 22.1095C5.17251 22.1095 3.64044 22.0903 5.06467 23.0638C5.06467 23.0638 6.09314 23.5463 6.80671 25.3576C6.80671 25.3576 7.72726 28.4083 12.0905 27.4607C12.0946 28.156 12.1003 28.7605 12.1048 29.2302L12.1049 29.2444L12.1051 29.2661C12.1089 29.6624 12.1117 29.959 12.1117 30.1282C12.1117 30.5442 11.8257 31.0285 11.0408 30.885C8.36889 29.9955 6.01652 28.4071 4.2007 26.3365C4.16063 26.2908 4.12082 26.2448 4.08128 26.1986C1.73249 23.4563 0.313721 19.8938 0.313721 16C0.313721 7.3367 7.3367 0.313721 16 0.313721C24.6633 0.313721 31.6863 7.3367 31.6863 16Z" fill="#B1757F"/>
</g>
<defs>
<clipPath id="clip0_65_245">
<rect width="32" height="32" fill="white"/>
</clipPath>
</defs>
</svg>
