<svg width="14" height="14" viewBox="0 0 14 14" fill="none" xmlns="http://www.w3.org/2000/svg">
<path d="M7.65487 1.31846C7.42065 1.14343 7.30354 1.05591 7.17423 1.02226C7.06013 0.992579 6.93987 0.992579 6.82577 1.02226C6.69646 1.05591 6.57935 1.14343 6.34513 1.31846L1.82359 4.69758C1.52135 4.92346 1.37022 5.0364 1.26135 5.17784C1.16491 5.30313 1.09307 5.44428 1.04935 5.59434C1 5.76375 1 5.94771 1 6.31563V10.9502C1 11.6677 1 12.0264 1.14532 12.3005C1.27316 12.5415 1.47713 12.7375 1.72801 12.8604C2.01323 13 2.3866 13 3.13333 13H4.46667C4.65335 13 4.74669 13 4.818 12.9651C4.88072 12.9344 4.93171 12.8854 4.96367 12.8251C5 12.7566 5 12.6669 5 12.4875V8.25974C5 7.90098 5 7.7216 5.07266 7.58458C5.13658 7.46404 5.23857 7.36605 5.36401 7.30463C5.50661 7.23482 5.6933 7.23482 6.06667 7.23482H7.93333C8.3067 7.23482 8.49339 7.23482 8.63599 7.30463C8.76144 7.36605 8.86342 7.46404 8.92734 7.58458C9 7.7216 9 7.90098 9 8.25974V12.4875C9 12.6669 9 12.7566 9.03633 12.8251C9.06829 12.8854 9.11928 12.9344 9.182 12.9651C9.25331 13 9.34665 13 9.53333 13H10.8667C11.6134 13 11.9868 13 12.272 12.8604C12.5229 12.7375 12.7268 12.5415 12.8547 12.3005C13 12.0264 13 11.6677 13 10.9502V6.31563C13 5.94771 13 5.76375 12.9506 5.59434C12.9069 5.44428 12.8351 5.30313 12.7386 5.17784C12.6298 5.0364 12.4787 4.92346 12.1764 4.69758L7.65487 1.31846Z" stroke="#FA627C" stroke-linecap="round" stroke-linejoin="round"/>
</svg>
