<svg width="14" height="14" viewBox="0 0 14 14" fill="none" xmlns="http://www.w3.org/2000/svg">
<path d="M7 9C4.72408 9 2.70013 10.0204 1.41157 11.604C1.13424 11.9448 0.995572 12.1152 1.00011 12.3455C1.00361 12.5235 1.12394 12.7479 1.27471 12.8578C1.46986 13 1.7403 13 2.28116 13H11.7188C12.2597 13 12.5301 13 12.7253 12.8578C12.8761 12.7479 12.9964 12.5235 12.9999 12.3455C13.0044 12.1152 12.8658 11.9448 12.5884 11.604C11.2999 10.0204 9.27592 9 7 9Z" stroke="#FAFAFA" stroke-linecap="round" stroke-linejoin="round"/>
<path d="M7 7C8.78428 7 10.2307 5.65685 10.2307 4C10.2307 2.34315 8.78428 1 7 1C5.21572 1 3.76928 2.34315 3.76928 4C3.76928 5.65685 5.21572 7 7 7Z" stroke="#FAFAFA" stroke-linecap="round" stroke-linejoin="round"/>
</svg>
