<svg width="32" height="32" viewBox="0 0 32 32" fill="none" xmlns="http://www.w3.org/2000/svg">
<path d="M16 0C7.1625 0 0 7.1625 0 16C0 24.8375 7.1625 32 16 32C24.8375 32 32 24.8375 32 16C32 7.1625 24.8375 0 16 0ZM11.525 22.6938H8.40625V12.7125H11.525V22.6938ZM9.88125 11.4625H9.85625C8.725 11.4625 7.99375 10.7 7.99375 9.73125C7.99375 8.74375 8.75 8 9.9 8C11.05 8 11.7562 8.74375 11.7812 9.73125C11.7875 10.6938 11.0563 11.4625 9.88125 11.4625ZM24 22.6938H20.4625V17.5312C20.4625 16.1812 19.9125 15.2563 18.6938 15.2563C17.7625 15.2563 17.2438 15.8813 17.0063 16.4813C16.9188 16.6938 16.9312 16.9937 16.9312 17.3V22.6938H13.425C13.425 22.6938 13.4688 13.5437 13.425 12.7125H16.9312V14.2812C17.1375 13.5938 18.2563 12.6187 20.0438 12.6187C22.2625 12.6187 24 14.0562 24 17.1437V22.6938Z" fill="#B1757F"/>
</svg>
