<svg width="32" height="32" viewBox="0 0 32 32" fill="none" xmlns="http://www.w3.org/2000/svg">
<circle cx="16" cy="16" r="16" fill="#FA627C"/>
<path fill-rule="evenodd" clip-rule="evenodd" d="M15.9999 14.75C14.0393 14.75 12.4499 13.1606 12.4499 11.2C12.4499 9.23935 14.0393 7.64996 15.9999 7.64996C17.9605 7.64996 19.5499 9.23935 19.5499 11.2C19.5499 13.1606 17.9605 14.75 15.9999 14.75ZM11.1999 11.2C11.1999 8.54899 13.349 6.39996 15.9999 6.39996C18.6509 6.39996 20.7999 8.54899 20.7999 11.2C20.7999 13.8509 18.6509 16 15.9999 16C13.349 16 11.1999 13.8509 11.1999 11.2ZM8.62524 25.5999C8.62524 21.5268 11.9271 18.2249 16.0002 18.2249C20.0733 18.2249 23.3752 21.5268 23.3752 25.5999H24.6252C24.6252 20.8365 20.7637 16.9749 16.0002 16.9749C11.2368 16.9749 7.37524 20.8365 7.37524 25.5999H8.62524Z" fill="#FAFAFA"/>
</svg>
