<svg width="32" height="32" viewBox="0 0 32 32" fill="none" xmlns="http://www.w3.org/2000/svg">
<path d="M23.47 19.216C23.1485 19.0562 21.0587 18.0974 20.7372 17.9376C20.4157 17.7778 20.0942 17.7778 19.7726 18.0974C19.4511 18.417 18.8081 19.3758 18.4866 19.6954C18.3259 20.015 18.0044 20.015 17.6829 19.8552C16.5576 19.3758 15.4323 18.7366 14.4678 17.9376C13.664 17.1386 12.8603 16.1798 12.2172 15.221C12.0565 14.9014 12.2172 14.5818 12.378 14.422C12.5388 14.2622 12.6995 13.9426 13.021 13.7828C13.1818 13.623 13.3425 13.3034 13.3425 13.1436C13.5033 12.9838 13.5033 12.6642 13.3425 12.5044C13.1818 12.3446 12.378 10.427 12.0565 9.62797C11.8957 8.50936 11.5742 8.50936 11.2527 8.50936C11.092 8.50936 10.7705 8.50936 10.449 8.50936C10.1275 8.50936 9.64519 8.82896 9.48444 8.98876C8.51992 9.94757 8.03766 11.0662 8.03766 12.3446C8.19842 13.7828 8.68067 15.221 9.64519 16.4994C11.4135 19.0562 13.664 21.1336 16.3968 22.412C17.2006 22.7316 17.8436 23.0512 18.6474 23.211C19.4511 23.5306 20.2549 23.5306 21.2194 23.3708C22.3447 23.211 23.3092 22.412 23.9522 21.4532C24.2737 20.814 24.2737 20.1748 24.113 19.5356C24.113 19.5356 23.7915 19.3758 23.47 19.216ZM27.4888 4.67416C21.2194 -1.55805 11.092 -1.55805 4.8226 4.67416C-0.321507 9.78777 -1.28603 17.618 2.25055 23.8502L0 32L8.51992 29.7628C10.9312 31.0412 13.5033 31.6804 16.0753 31.6804C24.9168 31.6804 31.9899 24.6492 31.9899 15.8602C32.1506 11.7054 30.3824 7.71036 27.4888 4.67416ZM23.1485 27.0462C21.0587 28.3246 18.6474 29.1236 16.0753 29.1236C13.664 29.1236 11.4135 28.4844 9.32369 27.3658L8.84143 27.0462L3.85808 28.3246L5.1441 23.5306L4.8226 23.0512C0.964519 16.6592 2.89356 8.66916 9.16293 4.67416C15.4323 0.679151 23.47 2.75655 27.3281 8.82896C31.1861 15.0612 29.4178 23.211 23.1485 27.0462Z" fill="#B1757F"/>
</svg>
